<svg width="777" height="488" viewBox="0 0 777 488" fill="none" xmlns="http://www.w3.org/2000/svg">
<rect opacity="0.5" x="679" y="186" width="1" height="302" fill="url(#paint0_linear)"/>
<rect opacity="0.5" x="194" y="278" width="1" height="210" fill="url(#paint1_linear)"/>
<rect opacity="0.5" x="291" y="190" width="1" height="298" fill="url(#paint2_linear)"/>
<path opacity="0.5" fill-rule="evenodd" clip-rule="evenodd" d="M97 23H98V488H97V23Z" fill="url(#paint3_linear)"/>
<rect x="582" y="386" width="1" height="102" fill="url(#paint4_linear)"/>
<rect opacity="0.5" y="388" width="1" height="100" fill="url(#paint5_linear)"/>
<rect opacity="0.5" x="582" y="60" width="1" height="140" fill="url(#paint6_linear)"/>
<rect opacity="0.5" x="776" width="1" height="260" fill="url(#paint7_linear)"/>
<defs>
<linearGradient id="paint0_linear" x1="679" y1="186" x2="679" y2="488" gradientUnits="userSpaceOnUse">
<stop stop-color="#D1D1D6"/>
<stop offset="1" stop-color="#F6F6F6"/>
</linearGradient>
<linearGradient id="paint1_linear" x1="194" y1="278" x2="194" y2="488" gradientUnits="userSpaceOnUse">
<stop stop-color="#D1D1D6"/>
<stop offset="1" stop-color="#F6F6F6"/>
</linearGradient>
<linearGradient id="paint2_linear" x1="291" y1="190" x2="291" y2="488" gradientUnits="userSpaceOnUse">
<stop stop-color="#D1D1D6"/>
<stop offset="1" stop-color="#F6F6F6"/>
</linearGradient>
<linearGradient id="paint3_linear" x1="97" y1="23" x2="97" y2="488" gradientUnits="userSpaceOnUse">
<stop stop-color="#D1D1D6"/>
<stop offset="1" stop-color="#F6F6F6"/>
</linearGradient>
<linearGradient id="paint4_linear" x1="582" y1="386" x2="582" y2="488" gradientUnits="userSpaceOnUse">
<stop stop-color="#E5E5EA"/>
<stop stop-color="#D1D1D6"/>
<stop offset="1" stop-color="#F6F6F6"/>
</linearGradient>
<linearGradient id="paint5_linear" x1="0" y1="388" x2="0" y2="488" gradientUnits="userSpaceOnUse">
<stop stop-color="#E5E5EA"/>
<stop stop-color="#D1D1D6"/>
<stop offset="1" stop-color="#F6F6F6"/>
</linearGradient>
<linearGradient id="paint6_linear" x1="582" y1="60" x2="582" y2="200" gradientUnits="userSpaceOnUse">
<stop stop-color="#E5E5EA"/>
<stop stop-color="#D1D1D6"/>
<stop offset="1" stop-color="#F6F6F6"/>
</linearGradient>
<linearGradient id="paint7_linear" x1="776" y1="0" x2="776" y2="260" gradientUnits="userSpaceOnUse">
<stop stop-color="#E5E5EA"/>
<stop stop-color="#D1D1D6"/>
<stop offset="1" stop-color="#F6F6F6"/>
</linearGradient>
</defs>
</svg>
