<svg width="24" height="24" viewBox="0 0 24 24" fill="none" xmlns="http://www.w3.org/2000/svg">
<path fill-rule="evenodd" clip-rule="evenodd" d="M19.9594 8.70406C19.9218 7.85391 19.7843 7.26945 19.5874 6.763C19.3842 6.22542 19.0715 5.74412 18.6619 5.34402C18.2618 4.93769 17.7772 4.62195 17.2458 4.42196C16.7362 4.22502 16.1547 4.08754 15.3045 4.05006C14.4478 4.0094 14.1758 4 12.0031 4C9.83039 4 9.55844 4.0094 8.70496 4.04688C7.85465 4.08437 7.27007 4.22197 6.76365 4.41878C6.22584 4.62195 5.74446 4.93451 5.34427 5.34402C4.93786 5.74412 4.62219 6.22859 4.42204 6.75994C4.22506 7.26945 4.08756 7.85074 4.05007 8.70088C4.0094 9.55738 4 9.82928 4 12.0016C4 14.1739 4.0094 14.4458 4.04689 15.2991C4.08438 16.1493 4.22201 16.7338 4.41899 17.2402C4.62219 17.7778 4.93786 18.259 5.34427 18.6591C5.74446 19.0655 6.22902 19.3812 6.76047 19.5812C7.27007 19.7782 7.85147 19.9156 8.7019 19.9531C9.55526 19.9907 9.82734 20 12.0001 20C14.1728 20 14.4447 19.9907 15.2982 19.9531C16.1486 19.9156 16.7331 19.7782 17.2395 19.5812C18.315 19.1655 19.1654 18.3154 19.5811 17.2402C19.778 16.7306 19.9156 16.1493 19.9531 15.2991C19.9906 14.4458 20 14.1739 20 12.0016C20 9.82928 19.9968 9.55738 19.9594 8.70406ZM18.5182 15.2366C18.4838 16.018 18.3525 16.44 18.2431 16.7213C17.9742 17.4183 17.4209 17.9715 16.7237 18.2404C16.4423 18.3498 16.0173 18.481 15.2387 18.5154C14.3946 18.553 14.1415 18.5622 12.0063 18.5622C9.87106 18.5622 9.61474 18.553 8.77371 18.5154C7.99215 18.481 7.57011 18.3498 7.28875 18.2404C6.94182 18.1122 6.62602 17.909 6.3697 17.6434C6.10397 17.3839 5.90077 17.0713 5.77254 16.7245C5.66312 16.4431 5.53185 16.018 5.49753 15.2398C5.45992 14.3958 5.45064 14.1426 5.45064 12.0078C5.45064 9.87299 5.45992 9.61671 5.49753 8.77597C5.53185 7.99457 5.66312 7.57261 5.77254 7.2913C5.90077 6.94431 6.10397 6.6287 6.37287 6.3723C6.63225 6.10662 6.94487 5.90346 7.29193 5.77538C7.57329 5.66598 7.9985 5.53473 8.77688 5.5003C9.62096 5.46282 9.87423 5.45342 12.0094 5.45342C14.1478 5.45342 14.4009 5.46282 15.2419 5.5003C16.0234 5.53473 16.4455 5.66598 16.7269 5.77538C17.0738 5.90346 17.3896 6.10662 17.6459 6.3723C17.9117 6.63174 18.1149 6.94431 18.2431 7.2913C18.3525 7.57261 18.4838 7.99762 18.5182 8.77597C18.5557 9.61989 18.5651 9.87299 18.5651 12.0078C18.5651 14.1426 18.5557 14.3927 18.5182 15.2366ZM11.9465 8.27744C9.76776 8.27744 8 10.0451 8 12.224C8 14.4029 9.76776 16.1705 11.9465 16.1705C14.1254 16.1705 15.893 14.4029 15.893 12.224C15.893 10.0451 14.1254 8.27744 11.9465 8.27744ZM11.9465 14.784C10.5331 14.784 9.38652 13.6376 9.38652 12.224C9.38652 10.8104 10.5331 9.66396 11.9465 9.66396C13.3602 9.66396 14.5066 10.8104 14.5066 12.224C14.5066 13.6376 13.3602 14.784 11.9465 14.784ZM16.0491 9.04267C16.558 9.04267 16.9706 8.63013 16.9706 8.12134C16.9706 7.61242 16.558 7.2 16.0491 7.2C15.5403 7.2 15.1278 7.61242 15.1278 8.12134C15.1278 8.63013 15.5403 9.04267 16.0491 9.04267Z" fill="#1B2437"/>
</svg>
